<?xml version="1.0" encoding="UTF-8" standalone="no"?>
<svg
   xmlns:dc="http://purl.org/dc/elements/1.1/"
   xmlns:cc="http://creativecommons.org/ns#"
   xmlns:rdf="http://www.w3.org/1999/02/22-rdf-syntax-ns#"
   xmlns:svg="http://www.w3.org/2000/svg"
   xmlns="http://www.w3.org/2000/svg"
   xmlns:sodipodi="http://sodipodi.sourceforge.net/DTD/sodipodi-0.dtd"
   xmlns:inkscape="http://www.inkscape.org/namespaces/inkscape"
   version="1.1"
   x="0px"
   y="0px"
   viewBox="0 0 64 80"
   style="enable-background:new 0 0 64 64;"
   xml:space="preserve"
   id="svg8"
   sodipodi:docname="noun_seach_2944069.svg"
   inkscape:version="0.92.3 (2405546, 2018-03-11)"><metadata
     id="metadata14"><rdf:RDF><cc:Work
         rdf:about=""><dc:format>image/svg+xml</dc:format><dc:type
           rdf:resource="http://purl.org/dc/dcmitype/StillImage" /></cc:Work></rdf:RDF></metadata><defs
     id="defs12" /><sodipodi:namedview
     pagecolor="#ffffff"
     bordercolor="#666666"
     borderopacity="1"
     objecttolerance="10"
     gridtolerance="10"
     guidetolerance="10"
     inkscape:pageopacity="0"
     inkscape:pageshadow="2"
     inkscape:window-width="1600"
     inkscape:window-height="834"
     id="namedview10"
     showgrid="false"
     inkscape:zoom="5.6568543"
     inkscape:cx="63.688468"
     inkscape:cy="40.321008"
     inkscape:window-x="0"
     inkscape:window-y="0"
     inkscape:window-maximized="1"
     inkscape:current-layer="svg8" /><path
     d="m 44.253553,46.524621 c 0.7,-1.1 1.4,-2.2 1.9,-3.4 1,-2.3 1.5,-4.8 1.5,-7.3 0,-2.5 -0.5,-5 -1.5,-7.3 -0.9,-2.2 -2.3,-4.2 -4,-6 -1.7,-1.7 -3.7,-3.1 -6,-4 -2.3,-1 -4.8,-1.5 -7.3,-1.5 -2.5,0 -5,0.5 -7.3,1.5 -2.2,0.9 -4.2,2.3 -6,4 -1.7,1.7 -3.1,3.7 -4,6 -1,2.3 -1.5,4.8 -1.5,7.3 0,2.5 0.5,5 1.5,7.3 0.9,2.2 2.3,4.2 4,6 1.7,1.7 3.7,3.1 6,4 2.3,1 4.8,1.5 7.3,1.5 2.5,0 5,-0.5 7.3,-1.5 1.2,-0.5 2.3,-1.1 3.4,-1.9 l 9.5,9.5 c 0.7,0.7 1.5,1 2.4,1 0.9,0 1.7,-0.3 2.4,-1 1.3,-1.3 1.3,-3.4 0,-4.7 z m -6.7,2 c -2.5,1.7 -5.5,2.8 -8.8,2.8 -8.5,0 -15.4,-6.9 -15.4,-15.4 0,-8.5 6.9,-15.5 15.4,-15.5 8.5,0 15.4,6.9 15.4,15.4 0,3.3 -1,6.3 -2.8,8.8 -0.9,1.5 -2.3,2.9 -3.8,3.9 z"
     id="path2"
     inkscape:connector-curvature="0"
     style="fill:#ffffff" /></svg>